<?xml version="1.0" encoding="utf-8"?>
<!-- Generator: Adobe Illustrator 16.0.0, SVG Export Plug-In . SVG Version: 6.00 Build 0)  -->
<!DOCTYPE svg PUBLIC "-//W3C//DTD SVG 1.0//EN" "http://www.w3.org/TR/2001/REC-SVG-20010904/DTD/svg10.dtd">
<svg version="1.0" id="Layer_1" xmlns="http://www.w3.org/2000/svg" xmlns:xlink="http://www.w3.org/1999/xlink" x="0px" y="0px"
	 viewBox="0 0 100 100" enable-background="new 0 0 100 100" xml:space="preserve">
<path d="M83.333,10H16.667C13.001,10,10,13.001,10,16.667v66.667C10,86.999,13.001,90,16.667,90h66.667
	C86.999,90,90,86.999,90,83.333V16.667C90,13.001,86.999,10,83.333,10z M26.667,36.667c0-5.521,4.479-10,10-10
	c5.521,0,10,4.479,10,10H40c0-1.842-1.493-3.333-3.333-3.333s-3.333,1.491-3.333,3.333v13.33c0,1.839,1.492,3.333,3.333,3.333
	S40,51.836,40,49.997h6.667c0,5.524-4.479,10-10,10c-5.521,0-10-4.477-10-10V36.667z M73.333,73.333H26.667v-6.666h46.667V73.333z
	 M65,60h-6.667L50,26.667h6.872l4.795,19.18l4.795-19.18h6.871L65,60z"/>
</svg>
